<svg width="648" height="442" viewBox="0 0 648 442" fill="none" xmlns="http://www.w3.org/2000/svg">
<g filter="url(#filter0_d_150_6074)">
<rect x="138" y="113" width="372" height="166" rx="18" fill="#F6FAFD"/>
</g>
<path d="M180.396 156.324C180.396 157.596 180.184 158.776 179.76 159.864C179.336 160.944 178.74 161.88 177.972 162.672C177.204 163.464 176.28 164.084 175.2 164.532C174.12 164.972 172.924 165.192 171.612 165.192C170.3 165.192 169.1 164.972 168.012 164.532C166.932 164.084 166.004 163.464 165.228 162.672C164.46 161.88 163.864 160.944 163.44 159.864C163.016 158.776 162.804 157.596 162.804 156.324C162.804 155.052 163.016 153.876 163.44 152.796C163.864 151.708 164.46 150.768 165.228 149.976C166.004 149.184 166.932 148.568 168.012 148.128C169.1 147.68 170.3 147.456 171.612 147.456C172.924 147.456 174.12 147.68 175.2 148.128C176.28 148.576 177.204 149.196 177.972 149.988C178.74 150.772 179.336 151.708 179.76 152.796C180.184 153.876 180.396 155.052 180.396 156.324ZM177.084 156.324C177.084 155.372 176.956 154.52 176.7 153.768C176.452 153.008 176.092 152.364 175.62 151.836C175.148 151.308 174.572 150.904 173.892 150.624C173.22 150.344 172.46 150.204 171.612 150.204C170.764 150.204 170 150.344 169.32 150.624C168.64 150.904 168.06 151.308 167.58 151.836C167.108 152.364 166.744 153.008 166.488 153.768C166.232 154.52 166.104 155.372 166.104 156.324C166.104 157.276 166.232 158.132 166.488 158.892C166.744 159.644 167.108 160.284 167.58 160.812C168.06 161.332 168.64 161.732 169.32 162.012C170 162.292 170.764 162.432 171.612 162.432C172.46 162.432 173.22 162.292 173.892 162.012C174.572 161.732 175.148 161.332 175.62 160.812C176.092 160.284 176.452 159.644 176.7 158.892C176.956 158.132 177.084 157.276 177.084 156.324ZM185.491 152.688V160.512C185.491 161.264 185.663 161.848 186.007 162.264C186.359 162.672 186.883 162.876 187.579 162.876C188.091 162.876 188.571 162.764 189.019 162.54C189.467 162.308 189.891 161.992 190.291 161.592V152.688H193.255V165H191.443C191.059 165 190.807 164.82 190.687 164.46L190.483 163.476C190.227 163.732 189.963 163.968 189.691 164.184C189.419 164.392 189.127 164.572 188.815 164.724C188.511 164.868 188.179 164.98 187.819 165.06C187.467 165.148 187.087 165.192 186.679 165.192C186.007 165.192 185.411 165.08 184.891 164.856C184.379 164.624 183.947 164.3 183.595 163.884C183.243 163.468 182.975 162.976 182.791 162.408C182.615 161.832 182.527 161.2 182.527 160.512V152.688H185.491ZM196.42 165V152.688H198.16C198.464 152.688 198.676 152.744 198.796 152.856C198.916 152.968 198.996 153.16 199.036 153.432L199.216 154.92C199.656 154.16 200.172 153.56 200.764 153.12C201.356 152.68 202.02 152.46 202.756 152.46C203.364 152.46 203.868 152.6 204.268 152.88L203.884 155.1C203.86 155.244 203.808 155.348 203.728 155.412C203.648 155.468 203.54 155.496 203.404 155.496C203.284 155.496 203.12 155.468 202.912 155.412C202.704 155.356 202.428 155.328 202.084 155.328C201.468 155.328 200.94 155.5 200.5 155.844C200.06 156.18 199.688 156.676 199.384 157.332V165H196.42ZM218.993 162.624C219.721 162.624 220.353 162.56 220.889 162.432C221.433 162.296 221.949 162.112 222.437 161.88V158.724H220.265C220.057 158.724 219.893 158.668 219.773 158.556C219.653 158.436 219.593 158.292 219.593 158.124V156.3H225.365V163.32C224.925 163.64 224.465 163.92 223.985 164.16C223.513 164.392 223.005 164.584 222.461 164.736C221.925 164.888 221.349 165 220.733 165.072C220.117 165.152 219.453 165.192 218.741 165.192C217.477 165.192 216.313 164.972 215.249 164.532C214.185 164.092 213.265 163.48 212.489 162.696C211.713 161.912 211.105 160.976 210.665 159.888C210.233 158.8 210.017 157.612 210.017 156.324C210.017 155.02 210.229 153.824 210.653 152.736C211.077 151.648 211.677 150.712 212.453 149.928C213.237 149.144 214.185 148.536 215.297 148.104C216.409 147.672 217.657 147.456 219.041 147.456C220.457 147.456 221.681 147.668 222.713 148.092C223.753 148.508 224.633 149.052 225.353 149.724L224.417 151.188C224.233 151.484 223.989 151.632 223.685 151.632C223.493 151.632 223.297 151.568 223.097 151.44C222.841 151.288 222.577 151.136 222.305 150.984C222.041 150.832 221.745 150.7 221.417 150.588C221.097 150.476 220.733 150.384 220.325 150.312C219.925 150.24 219.461 150.204 218.933 150.204C218.077 150.204 217.301 150.348 216.605 150.636C215.917 150.924 215.329 151.336 214.841 151.872C214.353 152.408 213.977 153.052 213.713 153.804C213.449 154.556 213.317 155.396 213.317 156.324C213.317 157.324 213.457 158.216 213.737 159C214.017 159.776 214.409 160.432 214.913 160.968C215.417 161.504 216.017 161.916 216.713 162.204C217.409 162.484 218.169 162.624 218.993 162.624ZM228.201 165V152.688H229.941C230.245 152.688 230.457 152.744 230.577 152.856C230.697 152.968 230.777 153.16 230.817 153.432L230.997 154.92C231.437 154.16 231.953 153.56 232.545 153.12C233.137 152.68 233.801 152.46 234.537 152.46C235.145 152.46 235.649 152.6 236.049 152.88L235.665 155.1C235.641 155.244 235.589 155.348 235.509 155.412C235.429 155.468 235.321 155.496 235.185 155.496C235.065 155.496 234.901 155.468 234.693 155.412C234.485 155.356 234.209 155.328 233.865 155.328C233.249 155.328 232.721 155.5 232.281 155.844C231.841 156.18 231.469 156.676 231.165 157.332V165H228.201ZM243.254 152.496C244.174 152.496 245.006 152.644 245.75 152.94C246.502 153.236 247.142 153.656 247.67 154.2C248.198 154.744 248.606 155.408 248.894 156.192C249.182 156.976 249.326 157.852 249.326 158.82C249.326 159.796 249.182 160.676 248.894 161.46C248.606 162.244 248.198 162.912 247.67 163.464C247.142 164.016 246.502 164.44 245.75 164.736C245.006 165.032 244.174 165.18 243.254 165.18C242.334 165.18 241.498 165.032 240.746 164.736C239.994 164.44 239.35 164.016 238.814 163.464C238.286 162.912 237.874 162.244 237.578 161.46C237.29 160.676 237.146 159.796 237.146 158.82C237.146 157.852 237.29 156.976 237.578 156.192C237.874 155.408 238.286 154.744 238.814 154.2C239.35 153.656 239.994 153.236 240.746 152.94C241.498 152.644 242.334 152.496 243.254 152.496ZM243.254 162.9C244.278 162.9 245.034 162.556 245.522 161.868C246.018 161.18 246.266 160.172 246.266 158.844C246.266 157.516 246.018 156.504 245.522 155.808C245.034 155.112 244.278 154.764 243.254 154.764C242.214 154.764 241.446 155.116 240.95 155.82C240.454 156.516 240.206 157.524 240.206 158.844C240.206 160.164 240.454 161.172 240.95 161.868C241.446 162.556 242.214 162.9 243.254 162.9ZM250.139 152.688H252.491C252.715 152.688 252.903 152.74 253.055 152.844C253.207 152.948 253.303 153.08 253.343 153.24L255.107 159.816C255.203 160.176 255.279 160.528 255.335 160.872C255.399 161.216 255.459 161.56 255.515 161.904C255.603 161.56 255.695 161.216 255.791 160.872C255.895 160.528 256.003 160.176 256.115 159.816L258.155 153.216C258.203 153.056 258.299 152.924 258.443 152.82C258.587 152.716 258.755 152.664 258.947 152.664H260.255C260.471 152.664 260.651 152.716 260.795 152.82C260.939 152.924 261.035 153.056 261.083 153.216L263.099 159.936C263.203 160.28 263.295 160.616 263.375 160.944C263.463 161.264 263.547 161.588 263.627 161.916C263.683 161.572 263.743 161.228 263.807 160.884C263.879 160.54 263.967 160.184 264.071 159.816L265.895 153.24C265.935 153.08 266.031 152.948 266.183 152.844C266.335 152.74 266.511 152.688 266.711 152.688H268.955L265.055 165H262.667C262.411 165 262.227 164.824 262.115 164.472L259.895 157.356C259.823 157.124 259.755 156.892 259.691 156.66C259.635 156.42 259.587 156.184 259.547 155.952C259.499 156.192 259.447 156.432 259.391 156.672C259.335 156.904 259.271 157.14 259.199 157.38L256.955 164.472C256.843 164.824 256.627 165 256.307 165H254.039L250.139 152.688ZM290.684 165H288.188C287.908 165 287.676 164.932 287.492 164.796C287.316 164.652 287.188 164.476 287.108 164.268L285.812 160.728H278.624L277.328 164.268C277.264 164.452 277.136 164.62 276.944 164.772C276.76 164.924 276.532 165 276.26 165H273.752L280.568 147.648H283.868L290.684 165ZM279.452 158.448H284.984L282.872 152.676C282.776 152.42 282.668 152.12 282.548 151.776C282.436 151.424 282.324 151.044 282.212 150.636C282.1 151.044 281.988 151.424 281.876 151.776C281.772 152.128 281.668 152.436 281.564 152.7L279.452 158.448ZM300.955 155.292C300.867 155.404 300.779 155.492 300.691 155.556C300.611 155.62 300.491 155.652 300.331 155.652C300.179 155.652 300.031 155.608 299.887 155.52C299.743 155.424 299.571 155.32 299.371 155.208C299.171 155.088 298.931 154.984 298.651 154.896C298.379 154.8 298.039 154.752 297.631 154.752C297.111 154.752 296.655 154.848 296.263 155.04C295.871 155.224 295.543 155.492 295.279 155.844C295.023 156.196 294.831 156.624 294.703 157.128C294.575 157.624 294.511 158.188 294.511 158.82C294.511 159.476 294.579 160.06 294.715 160.572C294.859 161.084 295.063 161.516 295.327 161.868C295.591 162.212 295.911 162.476 296.287 162.66C296.663 162.836 297.087 162.924 297.559 162.924C298.031 162.924 298.411 162.868 298.699 162.756C298.995 162.636 299.243 162.508 299.443 162.372C299.643 162.228 299.815 162.1 299.959 161.988C300.111 161.868 300.279 161.808 300.463 161.808C300.703 161.808 300.883 161.9 301.003 162.084L301.855 163.164C301.527 163.548 301.171 163.872 300.787 164.136C300.403 164.392 300.003 164.6 299.587 164.76C299.179 164.912 298.755 165.02 298.315 165.084C297.875 165.148 297.439 165.18 297.007 165.18C296.247 165.18 295.531 165.04 294.859 164.76C294.187 164.472 293.599 164.056 293.095 163.512C292.599 162.968 292.203 162.304 291.907 161.52C291.619 160.728 291.475 159.828 291.475 158.82C291.475 157.916 291.603 157.08 291.859 156.312C292.123 155.536 292.507 154.868 293.011 154.308C293.515 153.74 294.139 153.296 294.883 152.976C295.627 152.656 296.483 152.496 297.451 152.496C298.371 152.496 299.175 152.644 299.863 152.94C300.559 153.236 301.183 153.66 301.735 154.212L300.955 155.292ZM307.784 165.192C306.72 165.192 305.9 164.892 305.324 164.292C304.748 163.684 304.46 162.848 304.46 161.784V154.908H303.212C303.052 154.908 302.912 154.856 302.792 154.752C302.68 154.648 302.624 154.492 302.624 154.284V153.108L304.604 152.784L305.228 149.424C305.26 149.264 305.332 149.14 305.444 149.052C305.564 148.964 305.712 148.92 305.888 148.92H307.424V152.796H310.664V154.908H307.424V161.58C307.424 161.964 307.52 162.264 307.712 162.48C307.904 162.696 308.16 162.804 308.48 162.804C308.664 162.804 308.816 162.784 308.936 162.744C309.064 162.696 309.172 162.648 309.26 162.6C309.356 162.552 309.44 162.508 309.512 162.468C309.584 162.42 309.656 162.396 309.728 162.396C309.816 162.396 309.888 162.42 309.944 162.468C310 162.508 310.06 162.572 310.124 162.66L311.012 164.1C310.58 164.46 310.084 164.732 309.524 164.916C308.964 165.1 308.384 165.192 307.784 165.192ZM316.178 152.688V165H313.214V152.688H316.178ZM316.622 149.1C316.622 149.356 316.57 149.596 316.466 149.82C316.362 150.044 316.222 150.24 316.046 150.408C315.878 150.576 315.678 150.712 315.446 150.816C315.214 150.912 314.966 150.96 314.702 150.96C314.446 150.96 314.202 150.912 313.97 150.816C313.746 150.712 313.55 150.576 313.382 150.408C313.214 150.24 313.078 150.044 312.974 149.82C312.878 149.596 312.83 149.356 312.83 149.1C312.83 148.836 312.878 148.588 312.974 148.356C313.078 148.124 313.214 147.924 313.382 147.756C313.55 147.588 313.746 147.456 313.97 147.36C314.202 147.256 314.446 147.204 314.702 147.204C314.966 147.204 315.214 147.256 315.446 147.36C315.678 147.456 315.878 147.588 316.046 147.756C316.222 147.924 316.362 148.124 316.466 148.356C316.57 148.588 316.622 148.836 316.622 149.1ZM325.705 165H323.017L318.121 152.688H320.581C320.797 152.688 320.977 152.74 321.121 152.844C321.273 152.948 321.377 153.08 321.433 153.24L323.809 159.816C323.945 160.2 324.057 160.576 324.145 160.944C324.241 161.312 324.325 161.68 324.397 162.048C324.469 161.68 324.549 161.312 324.637 160.944C324.733 160.576 324.853 160.2 324.997 159.816L327.433 153.24C327.489 153.08 327.589 152.948 327.733 152.844C327.877 152.74 328.049 152.688 328.249 152.688H330.589L325.705 165ZM336.378 165.192C335.314 165.192 334.494 164.892 333.918 164.292C333.342 163.684 333.054 162.848 333.054 161.784V154.908H331.806C331.646 154.908 331.506 154.856 331.386 154.752C331.274 154.648 331.218 154.492 331.218 154.284V153.108L333.198 152.784L333.822 149.424C333.854 149.264 333.926 149.14 334.038 149.052C334.158 148.964 334.306 148.92 334.482 148.92H336.018V152.796H339.258V154.908H336.018V161.58C336.018 161.964 336.114 162.264 336.306 162.48C336.498 162.696 336.754 162.804 337.074 162.804C337.258 162.804 337.41 162.784 337.53 162.744C337.658 162.696 337.766 162.648 337.854 162.6C337.95 162.552 338.034 162.508 338.106 162.468C338.178 162.42 338.25 162.396 338.322 162.396C338.41 162.396 338.482 162.42 338.538 162.468C338.594 162.508 338.654 162.572 338.718 162.66L339.606 164.1C339.174 164.46 338.678 164.732 338.118 164.916C337.558 165.1 336.978 165.192 336.378 165.192ZM344.771 152.688V165H341.807V152.688H344.771ZM345.215 149.1C345.215 149.356 345.163 149.596 345.059 149.82C344.955 150.044 344.815 150.24 344.639 150.408C344.471 150.576 344.271 150.712 344.039 150.816C343.807 150.912 343.559 150.96 343.295 150.96C343.039 150.96 342.795 150.912 342.563 150.816C342.339 150.712 342.143 150.576 341.975 150.408C341.807 150.24 341.671 150.044 341.567 149.82C341.471 149.596 341.423 149.356 341.423 149.1C341.423 148.836 341.471 148.588 341.567 148.356C341.671 148.124 341.807 147.924 341.975 147.756C342.143 147.588 342.339 147.456 342.563 147.36C342.795 147.256 343.039 147.204 343.295 147.204C343.559 147.204 343.807 147.256 344.039 147.36C344.271 147.456 344.471 147.588 344.639 147.756C344.815 147.924 344.955 148.124 345.059 148.356C345.163 148.588 345.215 148.836 345.215 149.1ZM353.219 152.496C353.995 152.496 354.707 152.62 355.355 152.868C356.011 153.116 356.575 153.48 357.047 153.96C357.519 154.432 357.887 155.016 358.151 155.712C358.415 156.4 358.547 157.188 358.547 158.076C358.547 158.3 358.535 158.488 358.511 158.64C358.495 158.784 358.459 158.9 358.403 158.988C358.355 159.068 358.287 159.128 358.199 159.168C358.111 159.2 357.999 159.216 357.863 159.216H350.255C350.343 160.48 350.683 161.408 351.275 162C351.867 162.592 352.651 162.888 353.627 162.888C354.107 162.888 354.519 162.832 354.863 162.72C355.215 162.608 355.519 162.484 355.775 162.348C356.039 162.212 356.267 162.088 356.459 161.976C356.659 161.864 356.851 161.808 357.035 161.808C357.155 161.808 357.259 161.832 357.347 161.88C357.435 161.928 357.511 161.996 357.575 162.084L358.439 163.164C358.111 163.548 357.743 163.872 357.335 164.136C356.927 164.392 356.499 164.6 356.051 164.76C355.611 164.912 355.159 165.02 354.695 165.084C354.239 165.148 353.795 165.18 353.363 165.18C352.507 165.18 351.711 165.04 350.975 164.76C350.239 164.472 349.599 164.052 349.055 163.5C348.511 162.94 348.083 162.252 347.771 161.436C347.459 160.612 347.303 159.66 347.303 158.58C347.303 157.74 347.439 156.952 347.711 156.216C347.983 155.472 348.371 154.828 348.875 154.284C349.387 153.732 350.007 153.296 350.735 152.976C351.471 152.656 352.299 152.496 353.219 152.496ZM353.279 154.62C352.415 154.62 351.739 154.864 351.251 155.352C350.763 155.84 350.451 156.532 350.315 157.428H355.883C355.883 157.044 355.831 156.684 355.727 156.348C355.623 156.004 355.463 155.704 355.247 155.448C355.031 155.192 354.759 154.992 354.431 154.848C354.103 154.696 353.719 154.62 353.279 154.62ZM368.259 155.088C368.179 155.216 368.095 155.308 368.007 155.364C367.919 155.412 367.807 155.436 367.671 155.436C367.527 155.436 367.371 155.396 367.203 155.316C367.043 155.236 366.855 155.148 366.639 155.052C366.423 154.948 366.175 154.856 365.895 154.776C365.623 154.696 365.299 154.656 364.923 154.656C364.339 154.656 363.879 154.78 363.543 155.028C363.207 155.276 363.039 155.6 363.039 156C363.039 156.264 363.123 156.488 363.291 156.672C363.467 156.848 363.695 157.004 363.975 157.14C364.263 157.276 364.587 157.4 364.947 157.512C365.307 157.616 365.675 157.732 366.051 157.86C366.427 157.988 366.795 158.136 367.155 158.304C367.515 158.464 367.835 158.672 368.115 158.928C368.403 159.176 368.631 159.476 368.799 159.828C368.975 160.18 369.063 160.604 369.063 161.1C369.063 161.692 368.955 162.24 368.739 162.744C368.523 163.24 368.207 163.672 367.791 164.04C367.375 164.4 366.859 164.684 366.243 164.892C365.635 165.092 364.935 165.192 364.143 165.192C363.719 165.192 363.303 165.152 362.895 165.072C362.495 165 362.107 164.896 361.731 164.76C361.363 164.624 361.019 164.464 360.699 164.28C360.387 164.096 360.111 163.896 359.871 163.68L360.555 162.552C360.643 162.416 360.747 162.312 360.867 162.24C360.987 162.168 361.139 162.132 361.323 162.132C361.507 162.132 361.679 162.184 361.839 162.288C362.007 162.392 362.199 162.504 362.415 162.624C362.631 162.744 362.883 162.856 363.171 162.96C363.467 163.064 363.839 163.116 364.287 163.116C364.639 163.116 364.939 163.076 365.187 162.996C365.443 162.908 365.651 162.796 365.811 162.66C365.979 162.524 366.099 162.368 366.171 162.192C366.251 162.008 366.291 161.82 366.291 161.628C366.291 161.34 366.203 161.104 366.027 160.92C365.859 160.736 365.631 160.576 365.343 160.44C365.063 160.304 364.739 160.184 364.371 160.08C364.011 159.968 363.639 159.848 363.255 159.72C362.879 159.592 362.507 159.444 362.139 159.276C361.779 159.1 361.455 158.88 361.167 158.616C360.887 158.352 360.659 158.028 360.483 157.644C360.315 157.26 360.231 156.796 360.231 156.252C360.231 155.748 360.331 155.268 360.531 154.812C360.731 154.356 361.023 153.96 361.407 153.624C361.799 153.28 362.283 153.008 362.859 152.808C363.443 152.6 364.115 152.496 364.875 152.496C365.723 152.496 366.495 152.636 367.191 152.916C367.887 153.196 368.467 153.564 368.931 154.02L368.259 155.088Z" fill="black"/>
<path d="M172.234 191.146C173.367 191.146 174.404 191.316 175.345 191.656C176.286 191.985 177.09 192.455 177.759 193.067C178.428 193.679 178.949 194.416 179.323 195.277C179.697 196.138 179.884 197.096 179.884 198.15C179.884 199.057 179.748 199.895 179.476 200.666C179.215 201.437 178.858 202.173 178.405 202.876C177.963 203.579 177.442 204.259 176.841 204.916C176.24 205.573 175.611 206.242 174.954 206.922L169.412 212.583C169.956 212.424 170.489 212.305 171.01 212.226C171.531 212.135 172.03 212.09 172.506 212.09H178.813C179.266 212.09 179.623 212.22 179.884 212.481C180.156 212.73 180.292 213.065 180.292 213.484V216H163.428V214.606C163.428 214.323 163.485 214.028 163.598 213.722C163.723 213.416 163.915 213.133 164.176 212.872L171.639 205.392C172.262 204.757 172.818 204.151 173.305 203.573C173.804 202.995 174.217 202.423 174.546 201.856C174.886 201.289 175.141 200.717 175.311 200.139C175.492 199.55 175.583 198.932 175.583 198.286C175.583 197.697 175.498 197.181 175.328 196.739C175.158 196.286 174.914 195.906 174.597 195.6C174.28 195.294 173.9 195.067 173.458 194.92C173.027 194.761 172.54 194.682 171.996 194.682C170.987 194.682 170.154 194.937 169.497 195.447C168.851 195.957 168.398 196.643 168.137 197.504C168.012 197.935 167.825 198.246 167.576 198.439C167.327 198.62 167.009 198.711 166.624 198.711C166.454 198.711 166.267 198.694 166.063 198.66L163.853 198.269C164.023 197.09 164.352 196.059 164.839 195.175C165.326 194.28 165.933 193.537 166.658 192.948C167.395 192.347 168.233 191.9 169.174 191.605C170.126 191.299 171.146 191.146 172.234 191.146ZM198.536 193.203C198.536 193.804 198.343 194.291 197.958 194.665C197.584 195.039 196.955 195.226 196.071 195.226H189.305L188.421 200.36C189.531 200.133 190.546 200.02 191.464 200.02C192.756 200.02 193.889 200.213 194.864 200.598C195.85 200.983 196.677 201.516 197.346 202.196C198.014 202.876 198.519 203.675 198.859 204.593C199.199 205.5 199.369 206.48 199.369 207.534C199.369 208.837 199.136 210.027 198.672 211.104C198.218 212.181 197.584 213.104 196.768 213.875C195.952 214.634 194.983 215.224 193.861 215.643C192.75 216.062 191.537 216.272 190.223 216.272C189.452 216.272 188.721 216.193 188.03 216.034C187.338 215.875 186.687 215.666 186.075 215.405C185.474 215.133 184.913 214.827 184.392 214.487C183.882 214.136 183.423 213.767 183.015 213.382L184.307 211.597C184.579 211.212 184.941 211.019 185.395 211.019C185.678 211.019 185.961 211.11 186.245 211.291C186.539 211.472 186.879 211.671 187.265 211.886C187.65 212.101 188.098 212.3 188.608 212.481C189.118 212.662 189.735 212.753 190.461 212.753C191.231 212.753 191.911 212.628 192.501 212.379C193.09 212.13 193.577 211.784 193.963 211.342C194.359 210.889 194.654 210.356 194.847 209.744C195.051 209.121 195.153 208.446 195.153 207.721C195.153 206.384 194.762 205.341 193.98 204.593C193.209 203.834 192.07 203.454 190.563 203.454C189.373 203.454 188.177 203.669 186.976 204.1L184.358 203.352L186.398 191.418H198.536V193.203ZM212.835 200.649C213.765 200.649 214.666 200.802 215.538 201.108C216.422 201.414 217.199 201.879 217.867 202.502C218.536 203.114 219.074 203.879 219.482 204.797C219.89 205.715 220.094 206.786 220.094 208.01C220.094 209.155 219.885 210.231 219.465 211.24C219.046 212.237 218.457 213.11 217.697 213.858C216.938 214.606 216.02 215.195 214.943 215.626C213.878 216.057 212.699 216.272 211.407 216.272C210.093 216.272 208.914 216.062 207.871 215.643C206.829 215.224 205.939 214.64 205.202 213.892C204.466 213.133 203.899 212.226 203.502 211.172C203.117 210.107 202.924 208.928 202.924 207.636C202.924 206.48 203.157 205.296 203.621 204.083C204.097 202.859 204.828 201.59 205.814 200.275L211.679 192.404C211.883 192.132 212.178 191.9 212.563 191.707C212.96 191.514 213.413 191.418 213.923 191.418H217.663L210.37 200.343C210.212 200.536 210.059 200.717 209.911 200.887C209.775 201.057 209.639 201.233 209.503 201.414C209.979 201.176 210.489 200.989 211.033 200.853C211.589 200.717 212.189 200.649 212.835 200.649ZM206.953 208.282C206.953 208.962 207.044 209.585 207.225 210.152C207.418 210.707 207.696 211.183 208.058 211.58C208.432 211.977 208.891 212.288 209.435 212.515C209.979 212.73 210.608 212.838 211.322 212.838C211.991 212.838 212.603 212.725 213.158 212.498C213.725 212.271 214.207 211.954 214.603 211.546C215.011 211.138 215.329 210.662 215.555 210.118C215.782 209.563 215.895 208.962 215.895 208.316C215.895 207.613 215.788 206.984 215.572 206.429C215.357 205.862 215.051 205.386 214.654 205.001C214.258 204.604 213.782 204.304 213.226 204.1C212.671 203.896 212.059 203.794 211.39 203.794C210.722 203.794 210.115 203.907 209.571 204.134C209.027 204.361 208.557 204.678 208.16 205.086C207.775 205.483 207.475 205.959 207.259 206.514C207.055 207.058 206.953 207.647 206.953 208.282ZM222.409 213.688C222.409 213.337 222.471 213.002 222.596 212.685C222.732 212.368 222.913 212.096 223.14 211.869C223.378 211.642 223.656 211.461 223.973 211.325C224.29 211.189 224.63 211.121 224.993 211.121C225.344 211.121 225.679 211.189 225.996 211.325C226.313 211.461 226.585 211.642 226.812 211.869C227.039 212.096 227.22 212.368 227.356 212.685C227.492 213.002 227.56 213.337 227.56 213.688C227.56 214.051 227.492 214.391 227.356 214.708C227.22 215.014 227.039 215.28 226.812 215.507C226.585 215.734 226.313 215.909 225.996 216.034C225.679 216.17 225.344 216.238 224.993 216.238C224.63 216.238 224.29 216.17 223.973 216.034C223.656 215.909 223.378 215.734 223.14 215.507C222.913 215.28 222.732 215.014 222.596 214.708C222.471 214.391 222.409 214.051 222.409 213.688ZM238.665 216.272C237.395 216.272 236.234 216.102 235.18 215.762C234.137 215.422 233.242 214.94 232.494 214.317C231.746 213.694 231.162 212.94 230.743 212.056C230.335 211.172 230.131 210.186 230.131 209.098C230.131 207.647 230.488 206.423 231.202 205.426C231.916 204.417 233.026 203.669 234.534 203.182C233.332 202.683 232.431 201.975 231.831 201.057C231.241 200.139 230.947 199.034 230.947 197.742C230.947 196.813 231.134 195.946 231.508 195.141C231.893 194.336 232.426 193.639 233.106 193.05C233.786 192.449 234.596 191.985 235.537 191.656C236.489 191.316 237.531 191.146 238.665 191.146C239.798 191.146 240.835 191.316 241.776 191.656C242.728 191.985 243.544 192.449 244.224 193.05C244.904 193.639 245.431 194.336 245.805 195.141C246.19 195.946 246.383 196.813 246.383 197.742C246.383 199.034 246.082 200.139 245.482 201.057C244.881 201.975 243.986 202.683 242.796 203.182C244.303 203.669 245.414 204.417 246.128 205.426C246.842 206.423 247.199 207.647 247.199 209.098C247.199 210.186 246.989 211.172 246.57 212.056C246.162 212.94 245.584 213.694 244.836 214.317C244.088 214.94 243.187 215.422 242.133 215.762C241.09 216.102 239.934 216.272 238.665 216.272ZM238.665 212.991C239.356 212.991 239.962 212.895 240.484 212.702C241.005 212.498 241.441 212.22 241.793 211.869C242.155 211.518 242.427 211.098 242.609 210.611C242.79 210.124 242.881 209.597 242.881 209.03C242.881 207.681 242.507 206.661 241.759 205.97C241.011 205.279 239.979 204.933 238.665 204.933C237.35 204.933 236.319 205.279 235.571 205.97C234.823 206.661 234.449 207.681 234.449 209.03C234.449 209.597 234.539 210.124 234.721 210.611C234.902 211.098 235.168 211.518 235.52 211.869C235.882 212.22 236.324 212.498 236.846 212.702C237.367 212.895 237.973 212.991 238.665 212.991ZM238.665 201.635C239.345 201.635 239.917 201.527 240.382 201.312C240.846 201.097 241.22 200.813 241.504 200.462C241.787 200.099 241.985 199.691 242.099 199.238C242.223 198.773 242.286 198.297 242.286 197.81C242.286 197.345 242.212 196.903 242.065 196.484C241.917 196.065 241.696 195.696 241.402 195.379C241.107 195.05 240.733 194.79 240.28 194.597C239.826 194.404 239.288 194.308 238.665 194.308C238.041 194.308 237.503 194.404 237.05 194.597C236.596 194.79 236.217 195.05 235.911 195.379C235.616 195.696 235.395 196.065 235.248 196.484C235.112 196.903 235.044 197.345 235.044 197.81C235.044 198.297 235.1 198.773 235.214 199.238C235.338 199.691 235.542 200.099 235.826 200.462C236.109 200.813 236.483 201.097 236.948 201.312C237.412 201.527 237.985 201.635 238.665 201.635ZM257.537 206.191C256.687 206.191 255.854 206.044 255.038 205.749C254.222 205.454 253.491 205.012 252.845 204.423C252.211 203.822 251.701 203.086 251.315 202.213C250.93 201.329 250.737 200.298 250.737 199.119C250.737 198.02 250.941 196.988 251.349 196.025C251.757 195.062 252.33 194.217 253.066 193.492C253.803 192.767 254.687 192.194 255.718 191.775C256.75 191.356 257.889 191.146 259.135 191.146C260.393 191.146 261.521 191.344 262.518 191.741C263.527 192.138 264.383 192.693 265.085 193.407C265.799 194.121 266.343 194.977 266.717 195.974C267.103 196.971 267.295 198.065 267.295 199.255C267.295 200.014 267.227 200.734 267.091 201.414C266.967 202.094 266.78 202.751 266.53 203.386C266.292 204.009 266.003 204.621 265.663 205.222C265.323 205.811 264.944 206.406 264.524 207.007L258.897 215.031C258.705 215.303 258.416 215.535 258.03 215.728C257.656 215.909 257.226 216 256.738 216H252.879L260.512 206.463C260.705 206.225 260.886 205.993 261.056 205.766C261.226 205.539 261.391 205.313 261.549 205.086C260.983 205.449 260.359 205.726 259.679 205.919C258.999 206.1 258.285 206.191 257.537 206.191ZM263.266 198.83C263.266 198.161 263.164 197.566 262.96 197.045C262.756 196.512 262.467 196.065 262.093 195.702C261.719 195.339 261.272 195.062 260.75 194.869C260.24 194.676 259.679 194.58 259.067 194.58C258.433 194.58 257.86 194.688 257.35 194.903C256.84 195.107 256.404 195.396 256.041 195.77C255.69 196.144 255.418 196.592 255.225 197.113C255.033 197.623 254.936 198.184 254.936 198.796C254.936 200.167 255.288 201.216 255.99 201.941C256.704 202.655 257.713 203.012 259.016 203.012C259.696 203.012 260.297 202.904 260.818 202.689C261.351 202.474 261.799 202.179 262.161 201.805C262.524 201.431 262.796 200.989 262.977 200.479C263.17 199.969 263.266 199.419 263.266 198.83Z" fill="black"/>
<path d="M201.89 239.59C201.89 239.943 201.777 240.23 201.55 240.45C201.33 240.67 200.96 240.78 200.44 240.78H196.46L195.94 243.8C196.593 243.667 197.19 243.6 197.73 243.6C198.49 243.6 199.157 243.713 199.73 243.94C200.31 244.167 200.797 244.48 201.19 244.88C201.583 245.28 201.88 245.75 202.08 246.29C202.28 246.823 202.38 247.4 202.38 248.02C202.38 248.787 202.243 249.487 201.97 250.12C201.703 250.753 201.33 251.297 200.85 251.75C200.37 252.197 199.8 252.543 199.14 252.79C198.487 253.037 197.773 253.16 197 253.16C196.547 253.16 196.117 253.113 195.71 253.02C195.303 252.927 194.92 252.803 194.56 252.65C194.207 252.49 193.877 252.31 193.57 252.11C193.27 251.903 193 251.687 192.76 251.46L193.52 250.41C193.68 250.183 193.893 250.07 194.16 250.07C194.327 250.07 194.493 250.123 194.66 250.23C194.833 250.337 195.033 250.453 195.26 250.58C195.487 250.707 195.75 250.823 196.05 250.93C196.35 251.037 196.713 251.09 197.14 251.09C197.593 251.09 197.993 251.017 198.34 250.87C198.687 250.723 198.973 250.52 199.2 250.26C199.433 249.993 199.607 249.68 199.72 249.32C199.84 248.953 199.9 248.557 199.9 248.13C199.9 247.343 199.67 246.73 199.21 246.29C198.757 245.843 198.087 245.62 197.2 245.62C196.5 245.62 195.797 245.747 195.09 246L193.55 245.56L194.75 238.54H201.89V239.59ZM210.302 243.97C210.848 243.97 211.378 244.06 211.892 244.24C212.412 244.42 212.868 244.693 213.262 245.06C213.655 245.42 213.972 245.87 214.212 246.41C214.452 246.95 214.572 247.58 214.572 248.3C214.572 248.973 214.448 249.607 214.202 250.2C213.955 250.787 213.608 251.3 213.162 251.74C212.715 252.18 212.175 252.527 211.542 252.78C210.915 253.033 210.222 253.16 209.462 253.16C208.688 253.16 207.995 253.037 207.382 252.79C206.768 252.543 206.245 252.2 205.812 251.76C205.378 251.313 205.045 250.78 204.812 250.16C204.585 249.533 204.472 248.84 204.472 248.08C204.472 247.4 204.608 246.703 204.882 245.99C205.162 245.27 205.592 244.523 206.172 243.75L209.622 239.12C209.742 238.96 209.915 238.823 210.142 238.71C210.375 238.597 210.642 238.54 210.942 238.54H213.142L208.852 243.79C208.758 243.903 208.668 244.01 208.582 244.11C208.502 244.21 208.422 244.313 208.342 244.42C208.622 244.28 208.922 244.17 209.242 244.09C209.568 244.01 209.922 243.97 210.302 243.97ZM206.842 248.46C206.842 248.86 206.895 249.227 207.002 249.56C207.115 249.887 207.278 250.167 207.492 250.4C207.712 250.633 207.982 250.817 208.302 250.95C208.622 251.077 208.992 251.14 209.412 251.14C209.805 251.14 210.165 251.073 210.492 250.94C210.825 250.807 211.108 250.62 211.342 250.38C211.582 250.14 211.768 249.86 211.902 249.54C212.035 249.213 212.102 248.86 212.102 248.48C212.102 248.067 212.038 247.697 211.912 247.37C211.785 247.037 211.605 246.757 211.372 246.53C211.138 246.297 210.858 246.12 210.532 246C210.205 245.88 209.845 245.82 209.452 245.82C209.058 245.82 208.702 245.887 208.382 246.02C208.062 246.153 207.785 246.34 207.552 246.58C207.325 246.813 207.148 247.093 207.022 247.42C206.902 247.74 206.842 248.087 206.842 248.46ZM221.003 253.16C220.256 253.16 219.573 253.06 218.953 252.86C218.34 252.66 217.813 252.377 217.373 252.01C216.933 251.643 216.59 251.2 216.343 250.68C216.103 250.16 215.983 249.58 215.983 248.94C215.983 248.087 216.193 247.367 216.613 246.78C217.033 246.187 217.686 245.747 218.573 245.46C217.866 245.167 217.336 244.75 216.983 244.21C216.636 243.67 216.463 243.02 216.463 242.26C216.463 241.713 216.573 241.203 216.793 240.73C217.02 240.257 217.333 239.847 217.733 239.5C218.133 239.147 218.61 238.873 219.163 238.68C219.723 238.48 220.336 238.38 221.003 238.38C221.67 238.38 222.28 238.48 222.833 238.68C223.393 238.873 223.873 239.147 224.273 239.5C224.673 239.847 224.983 240.257 225.203 240.73C225.43 241.203 225.543 241.713 225.543 242.26C225.543 243.02 225.366 243.67 225.013 244.21C224.66 244.75 224.133 245.167 223.433 245.46C224.32 245.747 224.973 246.187 225.393 246.78C225.813 247.367 226.023 248.087 226.023 248.94C226.023 249.58 225.9 250.16 225.653 250.68C225.413 251.2 225.073 251.643 224.633 252.01C224.193 252.377 223.663 252.66 223.043 252.86C222.43 253.06 221.75 253.16 221.003 253.16ZM221.003 251.23C221.41 251.23 221.766 251.173 222.073 251.06C222.38 250.94 222.636 250.777 222.843 250.57C223.056 250.363 223.216 250.117 223.323 249.83C223.43 249.543 223.483 249.233 223.483 248.9C223.483 248.107 223.263 247.507 222.823 247.1C222.383 246.693 221.776 246.49 221.003 246.49C220.23 246.49 219.623 246.693 219.183 247.1C218.743 247.507 218.523 248.107 218.523 248.9C218.523 249.233 218.576 249.543 218.683 249.83C218.79 250.117 218.946 250.363 219.153 250.57C219.366 250.777 219.626 250.94 219.933 251.06C220.24 251.173 220.596 251.23 221.003 251.23ZM221.003 244.55C221.403 244.55 221.74 244.487 222.013 244.36C222.286 244.233 222.506 244.067 222.673 243.86C222.84 243.647 222.956 243.407 223.023 243.14C223.096 242.867 223.133 242.587 223.133 242.3C223.133 242.027 223.09 241.767 223.003 241.52C222.916 241.273 222.786 241.057 222.613 240.87C222.44 240.677 222.22 240.523 221.953 240.41C221.686 240.297 221.37 240.24 221.003 240.24C220.636 240.24 220.32 240.297 220.053 240.41C219.786 240.523 219.563 240.677 219.383 240.87C219.21 241.057 219.08 241.273 218.993 241.52C218.913 241.767 218.873 242.027 218.873 242.3C218.873 242.587 218.906 242.867 218.973 243.14C219.046 243.407 219.166 243.647 219.333 243.86C219.5 244.067 219.72 244.233 219.993 244.36C220.266 244.487 220.603 244.55 221.003 244.55ZM227.535 251.64C227.535 251.433 227.571 251.237 227.645 251.05C227.725 250.863 227.831 250.703 227.965 250.57C228.105 250.437 228.268 250.33 228.455 250.25C228.641 250.17 228.841 250.13 229.055 250.13C229.261 250.13 229.458 250.17 229.645 250.25C229.831 250.33 229.991 250.437 230.125 250.57C230.258 250.703 230.365 250.863 230.445 251.05C230.525 251.237 230.565 251.433 230.565 251.64C230.565 251.853 230.525 252.053 230.445 252.24C230.365 252.42 230.258 252.577 230.125 252.71C229.991 252.843 229.831 252.947 229.645 253.02C229.458 253.1 229.261 253.14 229.055 253.14C228.841 253.14 228.641 253.1 228.455 253.02C228.268 252.947 228.105 252.843 227.965 252.71C227.831 252.577 227.725 252.42 227.645 252.24C227.571 252.053 227.535 251.853 227.535 251.64ZM237.997 243.97C238.544 243.97 239.074 244.06 239.587 244.24C240.107 244.42 240.564 244.693 240.957 245.06C241.35 245.42 241.667 245.87 241.907 246.41C242.147 246.95 242.267 247.58 242.267 248.3C242.267 248.973 242.144 249.607 241.897 250.2C241.65 250.787 241.304 251.3 240.857 251.74C240.41 252.18 239.87 252.527 239.237 252.78C238.61 253.033 237.917 253.16 237.157 253.16C236.384 253.16 235.69 253.037 235.077 252.79C234.464 252.543 233.94 252.2 233.507 251.76C233.074 251.313 232.74 250.78 232.507 250.16C232.28 249.533 232.167 248.84 232.167 248.08C232.167 247.4 232.304 246.703 232.577 245.99C232.857 245.27 233.287 244.523 233.867 243.75L237.317 239.12C237.437 238.96 237.61 238.823 237.837 238.71C238.07 238.597 238.337 238.54 238.637 238.54H240.837L236.547 243.79C236.454 243.903 236.364 244.01 236.277 244.11C236.197 244.21 236.117 244.313 236.037 244.42C236.317 244.28 236.617 244.17 236.937 244.09C237.264 244.01 237.617 243.97 237.997 243.97ZM234.537 248.46C234.537 248.86 234.59 249.227 234.697 249.56C234.81 249.887 234.974 250.167 235.187 250.4C235.407 250.633 235.677 250.817 235.997 250.95C236.317 251.077 236.687 251.14 237.107 251.14C237.5 251.14 237.86 251.073 238.187 250.94C238.52 250.807 238.804 250.62 239.037 250.38C239.277 250.14 239.464 249.86 239.597 249.54C239.73 249.213 239.797 248.86 239.797 248.48C239.797 248.067 239.734 247.697 239.607 247.37C239.48 247.037 239.3 246.757 239.067 246.53C238.834 246.297 238.554 246.12 238.227 246C237.9 245.88 237.54 245.82 237.147 245.82C236.754 245.82 236.397 245.887 236.077 246.02C235.757 246.153 235.48 246.34 235.247 246.58C235.02 246.813 234.844 247.093 234.717 247.42C234.597 247.74 234.537 248.087 234.537 248.46ZM248.198 247.23C247.698 247.23 247.208 247.143 246.728 246.97C246.248 246.797 245.818 246.537 245.438 246.19C245.065 245.837 244.765 245.403 244.538 244.89C244.312 244.37 244.198 243.763 244.198 243.07C244.198 242.423 244.318 241.817 244.558 241.25C244.798 240.683 245.135 240.187 245.568 239.76C246.002 239.333 246.522 238.997 247.128 238.75C247.735 238.503 248.405 238.38 249.138 238.38C249.878 238.38 250.542 238.497 251.128 238.73C251.722 238.963 252.225 239.29 252.638 239.71C253.058 240.13 253.378 240.633 253.598 241.22C253.825 241.807 253.938 242.45 253.938 243.15C253.938 243.597 253.898 244.02 253.818 244.42C253.745 244.82 253.635 245.207 253.488 245.58C253.348 245.947 253.178 246.307 252.978 246.66C252.778 247.007 252.555 247.357 252.308 247.71L248.998 252.43C248.885 252.59 248.715 252.727 248.488 252.84C248.268 252.947 248.015 253 247.728 253H245.458L249.948 247.39C250.062 247.25 250.168 247.113 250.268 246.98C250.368 246.847 250.465 246.713 250.558 246.58C250.225 246.793 249.858 246.957 249.458 247.07C249.058 247.177 248.638 247.23 248.198 247.23ZM251.568 242.9C251.568 242.507 251.508 242.157 251.388 241.85C251.268 241.537 251.098 241.273 250.878 241.06C250.658 240.847 250.395 240.683 250.088 240.57C249.788 240.457 249.458 240.4 249.098 240.4C248.725 240.4 248.388 240.463 248.088 240.59C247.788 240.71 247.532 240.88 247.318 241.1C247.112 241.32 246.952 241.583 246.838 241.89C246.725 242.19 246.668 242.52 246.668 242.88C246.668 243.687 246.875 244.303 247.288 244.73C247.708 245.15 248.302 245.36 249.068 245.36C249.468 245.36 249.822 245.297 250.128 245.17C250.442 245.043 250.705 244.87 250.918 244.65C251.132 244.43 251.292 244.17 251.398 243.87C251.512 243.57 251.568 243.247 251.568 242.9ZM259.8 247.23C259.3 247.23 258.81 247.143 258.33 246.97C257.85 246.797 257.42 246.537 257.04 246.19C256.667 245.837 256.367 245.403 256.14 244.89C255.913 244.37 255.8 243.763 255.8 243.07C255.8 242.423 255.92 241.817 256.16 241.25C256.4 240.683 256.737 240.187 257.17 239.76C257.603 239.333 258.123 238.997 258.73 238.75C259.337 238.503 260.007 238.38 260.74 238.38C261.48 238.38 262.143 238.497 262.73 238.73C263.323 238.963 263.827 239.29 264.24 239.71C264.66 240.13 264.98 240.633 265.2 241.22C265.427 241.807 265.54 242.45 265.54 243.15C265.54 243.597 265.5 244.02 265.42 244.42C265.347 244.82 265.237 245.207 265.09 245.58C264.95 245.947 264.78 246.307 264.58 246.66C264.38 247.007 264.157 247.357 263.91 247.71L260.6 252.43C260.487 252.59 260.317 252.727 260.09 252.84C259.87 252.947 259.617 253 259.33 253H257.06L261.55 247.39C261.663 247.25 261.77 247.113 261.87 246.98C261.97 246.847 262.067 246.713 262.16 246.58C261.827 246.793 261.46 246.957 261.06 247.07C260.66 247.177 260.24 247.23 259.8 247.23ZM263.17 242.9C263.17 242.507 263.11 242.157 262.99 241.85C262.87 241.537 262.7 241.273 262.48 241.06C262.26 240.847 261.997 240.683 261.69 240.57C261.39 240.457 261.06 240.4 260.7 240.4C260.327 240.4 259.99 240.463 259.69 240.59C259.39 240.71 259.133 240.88 258.92 241.1C258.713 241.32 258.553 241.583 258.44 241.89C258.327 242.19 258.27 242.52 258.27 242.88C258.27 243.687 258.477 244.303 258.89 244.73C259.31 245.15 259.903 245.36 260.67 245.36C261.07 245.36 261.423 245.297 261.73 245.17C262.043 245.043 262.307 244.87 262.52 244.65C262.733 244.43 262.893 244.17 263 243.87C263.113 243.57 263.17 243.247 263.17 242.9ZM271.402 247.23C270.902 247.23 270.412 247.143 269.932 246.97C269.452 246.797 269.022 246.537 268.642 246.19C268.268 245.837 267.968 245.403 267.742 244.89C267.515 244.37 267.402 243.763 267.402 243.07C267.402 242.423 267.522 241.817 267.762 241.25C268.002 240.683 268.338 240.187 268.772 239.76C269.205 239.333 269.725 238.997 270.332 238.75C270.938 238.503 271.608 238.38 272.342 238.38C273.082 238.38 273.745 238.497 274.332 238.73C274.925 238.963 275.428 239.29 275.842 239.71C276.262 240.13 276.582 240.633 276.802 241.22C277.028 241.807 277.142 242.45 277.142 243.15C277.142 243.597 277.102 244.02 277.022 244.42C276.948 244.82 276.838 245.207 276.692 245.58C276.552 245.947 276.382 246.307 276.182 246.66C275.982 247.007 275.758 247.357 275.512 247.71L272.202 252.43C272.088 252.59 271.918 252.727 271.692 252.84C271.472 252.947 271.218 253 270.932 253H268.662L273.152 247.39C273.265 247.25 273.372 247.113 273.472 246.98C273.572 246.847 273.668 246.713 273.762 246.58C273.428 246.793 273.062 246.957 272.662 247.07C272.262 247.177 271.842 247.23 271.402 247.23ZM274.772 242.9C274.772 242.507 274.712 242.157 274.592 241.85C274.472 241.537 274.302 241.273 274.082 241.06C273.862 240.847 273.598 240.683 273.292 240.57C272.992 240.457 272.662 240.4 272.302 240.4C271.928 240.4 271.592 240.463 271.292 240.59C270.992 240.71 270.735 240.88 270.522 241.1C270.315 241.32 270.155 241.583 270.042 241.89C269.928 242.19 269.872 242.52 269.872 242.88C269.872 243.687 270.078 244.303 270.492 244.73C270.912 245.15 271.505 245.36 272.272 245.36C272.672 245.36 273.025 245.297 273.332 245.17C273.645 245.043 273.908 244.87 274.122 244.65C274.335 244.43 274.495 244.17 274.602 243.87C274.715 243.57 274.772 243.247 274.772 242.9Z" fill="black"/>
<path d="M277.392 206.928V211H275.24V199.432H279.008C279.781 199.432 280.451 199.523 281.016 199.704C281.581 199.885 282.048 200.139 282.416 200.464C282.784 200.789 283.056 201.179 283.232 201.632C283.408 202.085 283.496 202.581 283.496 203.12C283.496 203.68 283.403 204.195 283.216 204.664C283.029 205.128 282.749 205.528 282.376 205.864C282.003 206.2 281.536 206.461 280.976 206.648C280.416 206.835 279.76 206.928 279.008 206.928H277.392ZM277.392 205.248H279.008C279.403 205.248 279.747 205.2 280.04 205.104C280.333 205.003 280.576 204.861 280.768 204.68C280.96 204.493 281.104 204.269 281.2 204.008C281.296 203.741 281.344 203.445 281.344 203.12C281.344 202.811 281.296 202.531 281.2 202.28C281.104 202.029 280.96 201.816 280.768 201.64C280.576 201.464 280.333 201.331 280.04 201.24C279.747 201.144 279.403 201.096 279.008 201.096H277.392V205.248ZM288.214 202.664C288.731 202.664 289.206 202.747 289.638 202.912C290.075 203.077 290.451 203.32 290.766 203.64C291.08 203.955 291.326 204.344 291.502 204.808C291.678 205.267 291.766 205.792 291.766 206.384C291.766 206.533 291.758 206.659 291.742 206.76C291.731 206.856 291.707 206.933 291.67 206.992C291.638 207.045 291.592 207.085 291.534 207.112C291.475 207.133 291.4 207.144 291.31 207.144H286.238C286.296 207.987 286.523 208.605 286.918 209C287.312 209.395 287.835 209.592 288.486 209.592C288.806 209.592 289.08 209.555 289.31 209.48C289.544 209.405 289.747 209.323 289.918 209.232C290.094 209.141 290.246 209.059 290.374 208.984C290.507 208.909 290.635 208.872 290.758 208.872C290.838 208.872 290.907 208.888 290.966 208.92C291.024 208.952 291.075 208.997 291.118 209.056L291.694 209.776C291.475 210.032 291.23 210.248 290.958 210.424C290.686 210.595 290.4 210.733 290.102 210.84C289.808 210.941 289.507 211.013 289.198 211.056C288.894 211.099 288.598 211.12 288.31 211.12C287.739 211.12 287.208 211.027 286.718 210.84C286.227 210.648 285.8 210.368 285.438 210C285.075 209.627 284.79 209.168 284.582 208.624C284.374 208.075 284.27 207.44 284.27 206.72C284.27 206.16 284.36 205.635 284.542 205.144C284.723 204.648 284.982 204.219 285.318 203.856C285.659 203.488 286.072 203.197 286.558 202.984C287.048 202.771 287.6 202.664 288.214 202.664ZM288.254 204.08C287.678 204.08 287.227 204.243 286.902 204.568C286.576 204.893 286.368 205.355 286.278 205.952H289.99C289.99 205.696 289.955 205.456 289.886 205.232C289.816 205.003 289.71 204.803 289.566 204.632C289.422 204.461 289.24 204.328 289.022 204.232C288.803 204.131 288.547 204.08 288.254 204.08ZM293.368 211V202.792H294.529C294.731 202.792 294.873 202.829 294.953 202.904C295.033 202.979 295.086 203.107 295.113 203.288L295.233 204.28C295.526 203.773 295.87 203.373 296.265 203.08C296.659 202.787 297.102 202.64 297.593 202.64C297.998 202.64 298.334 202.733 298.601 202.92L298.345 204.4C298.329 204.496 298.294 204.565 298.241 204.608C298.187 204.645 298.115 204.664 298.025 204.664C297.945 204.664 297.835 204.645 297.697 204.608C297.558 204.571 297.374 204.552 297.145 204.552C296.734 204.552 296.382 204.667 296.089 204.896C295.795 205.12 295.547 205.451 295.345 205.888V211H293.368ZM308.914 206.2C309.004 206.371 309.087 206.549 309.162 206.736C309.242 206.917 309.319 207.101 309.394 207.288C309.468 207.096 309.546 206.907 309.626 206.72C309.706 206.533 309.791 206.355 309.882 206.184L313.306 199.776C313.348 199.696 313.391 199.632 313.434 199.584C313.482 199.536 313.532 199.501 313.586 199.48C313.644 199.459 313.708 199.445 313.778 199.44C313.847 199.435 313.93 199.432 314.026 199.432H315.65V211H313.754V203.528C313.754 203.389 313.756 203.237 313.762 203.072C313.772 202.907 313.786 202.739 313.802 202.568L310.306 209.128C310.226 209.277 310.122 209.395 309.994 209.48C309.866 209.56 309.716 209.6 309.546 209.6H309.25C309.079 209.6 308.93 209.56 308.802 209.48C308.674 209.395 308.57 209.277 308.49 209.128L304.946 202.544C304.967 202.72 304.98 202.893 304.986 203.064C304.996 203.229 305.002 203.384 305.002 203.528V211H303.106V199.432H304.73C304.826 199.432 304.908 199.435 304.978 199.44C305.047 199.445 305.108 199.459 305.162 199.48C305.22 199.501 305.274 199.536 305.322 199.584C305.37 199.632 305.415 199.696 305.458 199.776L308.914 206.2ZM321.373 202.664C321.986 202.664 322.541 202.763 323.037 202.96C323.538 203.157 323.965 203.437 324.317 203.8C324.669 204.163 324.941 204.605 325.133 205.128C325.325 205.651 325.421 206.235 325.421 206.88C325.421 207.531 325.325 208.117 325.133 208.64C324.941 209.163 324.669 209.608 324.317 209.976C323.965 210.344 323.538 210.627 323.037 210.824C322.541 211.021 321.986 211.12 321.373 211.12C320.759 211.12 320.202 211.021 319.701 210.824C319.199 210.627 318.77 210.344 318.413 209.976C318.061 209.608 317.786 209.163 317.589 208.64C317.397 208.117 317.301 207.531 317.301 206.88C317.301 206.235 317.397 205.651 317.589 205.128C317.786 204.605 318.061 204.163 318.413 203.8C318.77 203.437 319.199 203.157 319.701 202.96C320.202 202.763 320.759 202.664 321.373 202.664ZM321.373 209.6C322.055 209.6 322.559 209.371 322.885 208.912C323.215 208.453 323.381 207.781 323.381 206.896C323.381 206.011 323.215 205.336 322.885 204.872C322.559 204.408 322.055 204.176 321.373 204.176C320.679 204.176 320.167 204.411 319.837 204.88C319.506 205.344 319.341 206.016 319.341 206.896C319.341 207.776 319.506 208.448 319.837 208.912C320.167 209.371 320.679 209.6 321.373 209.6ZM326.962 211V202.792H328.17C328.426 202.792 328.594 202.912 328.674 203.152L328.81 203.8C328.976 203.629 329.149 203.475 329.33 203.336C329.517 203.197 329.712 203.077 329.914 202.976C330.122 202.875 330.344 202.797 330.578 202.744C330.813 202.691 331.069 202.664 331.346 202.664C331.794 202.664 332.192 202.741 332.538 202.896C332.885 203.045 333.173 203.259 333.402 203.536C333.637 203.808 333.813 204.136 333.93 204.52C334.053 204.899 334.114 205.317 334.114 205.776V211H332.138V205.776C332.138 205.275 332.021 204.888 331.786 204.616C331.557 204.339 331.21 204.2 330.746 204.2C330.405 204.2 330.085 204.277 329.786 204.432C329.488 204.587 329.205 204.797 328.938 205.064V211H326.962ZM338.752 211.128C338.043 211.128 337.496 210.928 337.112 210.528C336.728 210.123 336.536 209.565 336.536 208.856V204.272H335.704C335.597 204.272 335.504 204.237 335.424 204.168C335.349 204.099 335.312 203.995 335.312 203.856V203.072L336.632 202.856L337.048 200.616C337.069 200.509 337.117 200.427 337.192 200.368C337.272 200.309 337.371 200.28 337.488 200.28H338.512V202.864H340.672V204.272H338.512V208.72C338.512 208.976 338.576 209.176 338.704 209.32C338.832 209.464 339.003 209.536 339.216 209.536C339.339 209.536 339.44 209.523 339.52 209.496C339.605 209.464 339.677 209.432 339.736 209.4C339.8 209.368 339.856 209.339 339.904 209.312C339.952 209.28 340 209.264 340.048 209.264C340.107 209.264 340.155 209.28 340.192 209.312C340.229 209.339 340.269 209.381 340.312 209.44L340.904 210.4C340.616 210.64 340.285 210.821 339.912 210.944C339.539 211.067 339.152 211.128 338.752 211.128ZM342.243 211V199.112H344.22V203.68C344.54 203.376 344.892 203.131 345.276 202.944C345.66 202.757 346.11 202.664 346.628 202.664C347.076 202.664 347.473 202.741 347.82 202.896C348.166 203.045 348.454 203.259 348.684 203.536C348.918 203.808 349.094 204.136 349.212 204.52C349.334 204.899 349.396 205.317 349.396 205.776V211H347.42V205.776C347.42 205.275 347.302 204.888 347.068 204.616C346.838 204.339 346.492 204.2 346.028 204.2C345.686 204.2 345.366 204.277 345.068 204.432C344.769 204.587 344.486 204.797 344.22 205.064V211H342.243Z" fill="black"/>
<path d="M172 239L180.66 254H163.34L172 239Z" fill="#FF5A3C"/>
<rect x="399" y="170" width="26" height="78" rx="3" fill="url(#paint0_linear_150_6074)" fill-opacity="0.38"/>
<rect x="431" y="170" width="26" height="78" rx="3" fill="url(#paint1_linear_150_6074)" fill-opacity="0.38"/>
<rect x="463" y="170" width="26" height="78" rx="3" fill="url(#paint2_linear_150_6074)" fill-opacity="0.38"/>
<path d="M399 201H425V245C425 246.657 423.657 248 422 248H402C400.343 248 399 246.657 399 245V201Z" fill="#FF5A3C"/>
<path d="M431 219H457V245C457 246.657 455.657 248 454 248H434C432.343 248 431 246.657 431 245V219Z" fill="#FF5A3C"/>
<path d="M463 201H489V245C489 246.657 487.657 248 486 248H466C464.343 248 463 246.657 463 245V201Z" fill="#FF5A3C"/>
<defs>
<filter id="filter0_d_150_6074" x="0" y="0" width="648" height="442" filterUnits="userSpaceOnUse" color-interpolation-filters="sRGB">
<feFlood flood-opacity="0" result="BackgroundImageFix"/>
<feColorMatrix in="SourceAlpha" type="matrix" values="0 0 0 0 0 0 0 0 0 0 0 0 0 0 0 0 0 0 127 0" result="hardAlpha"/>
<feMorphology radius="23" operator="dilate" in="SourceAlpha" result="effect1_dropShadow_150_6074"/>
<feOffset dy="25"/>
<feGaussianBlur stdDeviation="57.5"/>
<feComposite in2="hardAlpha" operator="out"/>
<feColorMatrix type="matrix" values="0 0 0 0 0.0708333 0 0 0 0 0.0708333 0 0 0 0 0.0708333 0 0 0 0.14 0"/>
<feBlend mode="normal" in2="BackgroundImageFix" result="effect1_dropShadow_150_6074"/>
<feBlend mode="normal" in="SourceGraphic" in2="effect1_dropShadow_150_6074" result="shape"/>
</filter>
<linearGradient id="paint0_linear_150_6074" x1="412" y1="170" x2="412" y2="248" gradientUnits="userSpaceOnUse">
<stop stop-color="#FF5A3C" stop-opacity="0.13"/>
<stop offset="1" stop-color="#FF5A3C"/>
</linearGradient>
<linearGradient id="paint1_linear_150_6074" x1="444" y1="170" x2="444" y2="248" gradientUnits="userSpaceOnUse">
<stop stop-color="#FF5A3C" stop-opacity="0.13"/>
<stop offset="1" stop-color="#FF5A3C"/>
</linearGradient>
<linearGradient id="paint2_linear_150_6074" x1="476" y1="170" x2="476" y2="248" gradientUnits="userSpaceOnUse">
<stop stop-color="#FF5A3C" stop-opacity="0.13"/>
<stop offset="1" stop-color="#FF5A3C"/>
</linearGradient>
</defs>
</svg>
