<svg width="16" height="15" viewBox="0 0 16 15" fill="none" xmlns="http://www.w3.org/2000/svg">
<g clip-path="url(#clip0_150_6235)">
<path d="M10.925 1.65063H5.07496C3.45953 1.65063 2.14996 2.9602 2.14996 4.57563V10.4256C2.14996 12.0411 3.45953 13.3506 5.07496 13.3506H10.925C12.5404 13.3506 13.85 12.0411 13.85 10.4256V4.57563C13.85 2.9602 12.5404 1.65063 10.925 1.65063Z" stroke="white" stroke-width="2" stroke-linecap="round" stroke-linejoin="round"/>
<path d="M10.34 7.13226C10.4122 7.61913 10.329 8.11636 10.1023 8.55324C9.87566 8.99011 9.51699 9.34439 9.07735 9.56567C8.63771 9.78695 8.13949 9.86398 7.65355 9.78578C7.16761 9.70759 6.7187 9.47816 6.37068 9.13013C6.02265 8.7821 5.79322 8.33319 5.71502 7.84726C5.63683 7.36132 5.71385 6.8631 5.93514 6.42346C6.15642 5.98382 6.51069 5.62515 6.94757 5.39846C7.38445 5.17178 7.88168 5.08862 8.36855 5.16081C8.86517 5.23445 9.32493 5.46587 9.67994 5.82087C10.0349 6.17587 10.2664 6.63564 10.34 7.13226Z" stroke="white" stroke-width="2" stroke-linecap="round" stroke-linejoin="round"/>
<ellipse cx="11.2175" cy="4.28326" rx="0.8775" ry="0.8775" fill="white"/>
</g>
<defs>
<clipPath id="clip0_150_6235">
<rect width="14.04" height="14.04" fill="white" transform="translate(0.97998 0.480713)"/>
</clipPath>
</defs>
</svg>
