<svg width="170" height="102" viewBox="0 0 170 102" fill="none" xmlns="http://www.w3.org/2000/svg">
<path d="M46.7903 9.39574C46.8865 9.3024 46.9776 9.20771 47.0791 9.11573C61.3076 -4.18618 77.3556 0.213889 88.9825 9.13735C96.5927 14.9763 103.457 23.7418 107.117 35.2501C119.524 30.4474 133.037 33.6625 142.26 40.6153C152.358 48.2271 159.348 61.2709 162.573 77.1484C163.341 76.4942 164.11 75.815 164.868 75.0907C165.348 74.632 165.801 74.5049 166.196 74.5823C166.577 74.1403 166.958 73.6982 167.334 73.2296C168.485 71.787 170.209 73.2425 169.702 75.208C167.67 83.094 165.675 90.9894 163.676 98.8756C163.265 100.494 161.852 101.691 160.996 100.58C160.323 99.7022 159.649 98.8247 158.978 97.9394C158.553 97.7864 158.186 97.4117 157.997 96.796C157.969 96.7125 157.948 96.6225 157.925 96.5405C155.612 93.4599 153.327 90.3358 151.116 87.0958C150.239 85.8101 151.461 83.4558 152.54 83.8807C152.7 83.6939 152.884 83.5389 153.099 83.4343C155.106 82.4431 157.062 81.2865 158.978 79.9419C153.841 54.136 137.84 37.2312 117.428 38.452C114.708 38.6144 111.606 39.1766 108.453 40.2329C109.068 43.0149 109.517 45.9228 109.731 48.9894C110.711 62.7516 104.788 89.2538 91.505 84.6691C78.415 80.1515 83.7091 54.8131 94.1824 43.9668C97.1453 40.8988 100.334 38.5578 103.647 36.8242C97.3171 17.7192 81.1441 5.72549 66.4779 5.47436C61.2763 5.38808 55.3187 7.43917 50.1251 11.5499C59.0175 17.799 67.098 27.93 62.2858 44.4712C57.7191 60.1545 42.5419 64.0328 36.753 53.6022C30.364 42.0765 35.0249 23.6944 43.7966 12.7094C43.1102 12.3276 42.4321 11.9565 41.7592 11.5867C29.929 5.07984 13.2103 2.2558 2.0458 21.8109C0.96832 23.6954 -0.627579 21.7489 0.408437 19.8536C10.9825 0.48301 27.7057 0.102805 39.9516 5.8214C42.0167 6.77374 44.3764 7.95505 46.7903 9.39574ZM87.4318 65.1876C86.3394 72.9293 89.4563 80.0843 94.9189 80.0187C102.239 79.9379 105.729 66.4352 106.264 58.2186C106.65 52.2973 106.155 46.7387 104.975 41.6021C96.8956 45.2994 89.2178 52.5521 87.4318 65.1876ZM37.8924 32.0616C34.7016 47.562 43.2059 62.1421 54.5882 51.6087C61.8883 44.8497 61.3895 32.0842 57.592 25.0564C54.9513 20.1736 50.9926 17.0365 46.8823 14.5027C42.7324 18.8345 39.4059 24.7003 37.8924 32.0616Z" fill="white"/>
</svg>
