<svg width="41" height="33" viewBox="0 0 41 33" fill="none" xmlns="http://www.w3.org/2000/svg">
<path d="M37.5198 28.2728C41.3852 24.0487 40.996 18.6244 40.9837 18.5625V12.375V2.0625C40.9837 0.924 40.0681 0 38.9353 0H26.6444C24.385 0 22.5475 1.85006 22.5475 4.125V18.5625C22.5475 19.701 23.4632 20.625 24.596 20.625H26.6444H30.9012C30.8581 21.4541 30.6492 22.506 30.0224 23.5042C28.9817 25.1563 27.0214 26.2845 24.1924 26.8538L22.5475 27.1838V33H24.596C30.2969 33 34.6458 31.4098 37.5198 28.2728ZM14.9723 28.2728C18.8398 24.0487 18.4485 18.6244 18.4362 18.5625V12.375V2.0625C18.4362 0.924 17.5206 0 16.3878 0H4.09694C1.83748 0 0 1.85006 0 4.125V18.5625C0 19.701 0.915666 20.625 2.04847 20.625H4.09694H8.35366C8.31064 21.4541 8.1017 22.506 7.47487 23.5042C6.43424 25.1563 4.47386 26.2845 1.64492 26.8538L0 27.1838V33H2.04847C7.74936 33 12.0983 31.4098 14.9723 28.2728Z" fill="#FF5A3C"/>
</svg>
