<svg width="23" height="21" viewBox="0 0 23 21" fill="none" xmlns="http://www.w3.org/2000/svg">
<path d="M21.8156 8.34109L17.2006 12.8376L18.2895 19.1934C18.3339 19.4749 18.2228 19.749 17.9932 19.9194C17.8673 20.0157 17.7117 20.0601 17.5561 20.0601C17.4376 20.0601 17.3191 20.0305 17.208 19.9786L11.504 16.9785L5.80009 19.9786C5.54822 20.112 5.25192 20.0897 5.02228 19.9194C4.79264 19.7564 4.68152 19.4749 4.72597 19.1934L5.8149 12.8376L1.2073 8.34109C1.00729 8.14108 0.933216 7.85218 1.02211 7.5855C1.111 7.31883 1.34064 7.11882 1.62213 7.08178L8.00018 6.15581L10.8522 0.377794C11.104 -0.125931 11.9337 -0.125931 12.1781 0.377794L15.0301 6.15581L21.4082 7.08178C21.6896 7.12622 21.9193 7.31883 22.0082 7.5855C22.0971 7.85218 22.023 8.14108 21.8156 8.34109Z" fill="#FF5A3C"/>
</svg>
