<svg width="14" height="14" viewBox="0 0 14 14" fill="none" xmlns="http://www.w3.org/2000/svg">
<g clip-path="url(#clip0_150_6156)">
<path d="M9.8848 12.2109V11.048C9.8848 10.4311 9.63976 9.83956 9.20358 9.40338C8.76741 8.96721 8.17583 8.72217 7.55899 8.72217H2.90736C2.29051 8.72217 1.69893 8.96721 1.26276 9.40338C0.826583 9.83956 0.581543 10.4311 0.581543 11.048V12.2109" stroke="#FFF9F2" stroke-width="0.87218" stroke-linecap="round" stroke-linejoin="round"/>
<path d="M5.23347 6.39638C6.51798 6.39638 7.55928 5.35508 7.55928 4.07057C7.55928 2.78605 6.51798 1.74475 5.23347 1.74475C3.94896 1.74475 2.90765 2.78605 2.90765 4.07057C2.90765 5.35508 3.94896 6.39638 5.23347 6.39638Z" stroke="#FFF9F2" stroke-width="0.87218" stroke-linecap="round" stroke-linejoin="round"/>
<path d="M13.3738 12.2111V11.0482C13.3734 10.5329 13.2019 10.0323 12.8862 9.62498C12.5705 9.2177 12.1284 8.92681 11.6295 8.79797" stroke="#FFF9F2" stroke-width="0.87218" stroke-linecap="round" stroke-linejoin="round"/>
<path d="M9.30334 1.82056C9.80364 1.94865 10.2471 2.23961 10.5637 2.64756C10.8804 3.05552 11.0523 3.55726 11.0523 4.07369C11.0523 4.59012 10.8804 5.09186 10.5637 5.49982C10.2471 5.90777 9.80364 6.19873 9.30334 6.32682" stroke="#FFF9F2" stroke-width="0.87218" stroke-linecap="round" stroke-linejoin="round"/>
</g>
<defs>
<clipPath id="clip0_150_6156">
<rect width="13.9549" height="13.9549" fill="white"/>
</clipPath>
</defs>
</svg>
