<svg width="32" height="32" viewBox="0 0 32 32" fill="none" xmlns="http://www.w3.org/2000/svg">
<circle opacity="0.2" cx="16" cy="16" r="16" fill="white"/>
<rect x="11.1997" y="20.0001" width="1.6" height="4" fill="white"/>
<rect x="11.1997" y="8" width="1.6" height="6.4" fill="white"/>
<rect x="20.8002" y="9.60052" width="1.6" height="9.6" transform="rotate(90 20.8002 9.60052)" fill="white"/>
<rect x="16.8" y="15.1998" width="1.6" height="4.8" transform="rotate(-180 16.8 15.1998)" fill="white"/>
<rect x="19.2" y="20.0001" width="1.6" height="4" fill="white"/>
<rect x="19.2" y="8" width="1.6" height="6.4" fill="white"/>
<path d="M23.5638 19.928C23.5638 20.1688 23.3686 20.3641 23.1277 20.3641L8.87209 20.3641C8.63124 20.3641 8.436 20.1688 8.436 19.928L8.436 18.8333C8.436 16.1839 10.5837 14.0363 13.233 14.0363L18.7668 14.0363C21.4161 14.0363 23.5638 16.1839 23.5638 18.8333L23.5638 19.928Z" stroke="white" stroke-width="0.87218"/>
</svg>
