<svg width="32" height="32" viewBox="0 0 32 32" fill="none" xmlns="http://www.w3.org/2000/svg">
<circle opacity="0.2" cx="16" cy="16" r="16" fill="white"/>
<rect x="11.1996" y="20.8" width="1.59998" height="3.19996" fill="white"/>
<rect x="19.1996" y="20.8" width="1.59998" height="3.19996" fill="white"/>
<path d="M8.43609 14.8355H23.5637V16.3662C23.5637 19.0155 21.416 21.1632 18.7667 21.1632H13.2331C10.5838 21.1632 8.43609 19.0155 8.43609 16.3662V14.8355Z" stroke="white" stroke-width="0.87218"/>
<rect x="10.4002" y="11.1994" width="1.59998" height="3.19996" fill="white"/>
<rect x="15.1998" y="11.1994" width="1.59998" height="0.799989" fill="white"/>
<path d="M16.8003 11.2C16.8003 10.7797 16.7175 10.3636 16.5567 9.97539C16.3959 9.58715 16.1602 9.23439 15.8631 8.93725C15.5659 8.6401 15.2132 8.40439 14.8249 8.24358C14.4367 8.08277 14.0206 8 13.6004 8C13.1801 8 12.764 8.08277 12.3758 8.24358C11.9876 8.4044 11.6348 8.6401 11.3377 8.93725C11.0405 9.23439 10.8048 9.58715 10.644 9.97539C10.4832 10.3636 10.4004 10.7797 10.4004 11.2H12.0023C12.0023 10.9901 12.0437 10.7823 12.124 10.5884C12.2043 10.3945 12.322 10.2184 12.4704 10.07C12.6188 9.92159 12.7949 9.80388 12.9888 9.72357C13.1827 9.64326 13.3905 9.60193 13.6004 9.60193C13.8102 9.60193 14.018 9.64326 14.2119 9.72357C14.4058 9.80388 14.5819 9.92159 14.7303 10.07C14.8787 10.2184 14.9964 10.3945 15.0767 10.5884C15.1571 10.7823 15.1984 10.9901 15.1984 11.2H16.8003Z" fill="white"/>
</svg>
