<svg width="24" height="24" viewBox="0 0 24 24" fill="none" xmlns="http://www.w3.org/2000/svg">
<path d="M22.9281 11.277L1.80315 0.714487C1.65687 0.64182 1.4921 0.614923 1.33031 0.637304C1.16853 0.659685 1.01724 0.730305 0.896191 0.839952C0.77514 0.949599 0.689945 1.09318 0.651718 1.25197C0.613492 1.41076 0.624008 1.57739 0.681895 1.73011L4.63065 12.0001L0.681895 22.2701C0.624008 22.4228 0.613492 22.5895 0.651718 22.7483C0.689945 22.907 0.77514 23.0506 0.896191 23.1603C1.01724 23.2699 1.16853 23.3405 1.33031 23.3629C1.4921 23.3853 1.65687 23.3584 1.80315 23.2857L22.9281 12.7232C23.0612 12.6551 23.1729 12.5515 23.2509 12.4239C23.3289 12.2963 23.3702 12.1496 23.3702 12.0001C23.3702 11.8506 23.3289 11.7039 23.2509 11.5763C23.1729 11.4488 23.0612 11.3452 22.9281 11.277ZM2.94877 3.10324L19.1175 11.2282H9.56252V10.3751C9.56252 10.1596 9.47692 9.95296 9.32454 9.80059C9.17217 9.64821 8.96551 9.56261 8.75002 9.56261C8.53453 9.56261 8.32787 9.64821 8.1755 9.80059C8.02312 9.95296 7.93752 10.1596 7.93752 10.3751V11.1876H6.06065L2.94877 3.10324ZM6.06065 12.8126H7.93752V13.6251C7.93752 13.8406 8.02312 14.0473 8.1755 14.1996C8.32787 14.352 8.53453 14.4376 8.75002 14.4376C8.96551 14.4376 9.17217 14.352 9.32454 14.1996C9.47692 14.0473 9.56252 13.8406 9.56252 13.6251V12.8126H19.1175L2.94877 20.9376L6.06065 12.8126Z" fill="white"/>
</svg>
