<svg width="90" height="78" viewBox="0 0 90 78" fill="none" xmlns="http://www.w3.org/2000/svg">
<rect width="26" height="78" rx="3" fill="url(#paint0_linear_150_6083)" fill-opacity="0.38"/>
<rect x="32" width="26" height="78" rx="3" fill="url(#paint1_linear_150_6083)" fill-opacity="0.38"/>
<rect x="64" width="26" height="78" rx="3" fill="url(#paint2_linear_150_6083)" fill-opacity="0.38"/>
<path d="M0 31H26V75C26 76.6569 24.6569 78 23 78H3C1.34315 78 0 76.6569 0 75V31Z" fill="#FF5A3C"/>
<path d="M32 49H58V75C58 76.6569 56.6569 78 55 78H35C33.3431 78 32 76.6569 32 75V49Z" fill="#FF5A3C"/>
<path d="M64 31H90V75C90 76.6569 88.6569 78 87 78H67C65.3431 78 64 76.6569 64 75V31Z" fill="#FF5A3C"/>
<defs>
<linearGradient id="paint0_linear_150_6083" x1="13" y1="0" x2="13" y2="78" gradientUnits="userSpaceOnUse">
<stop stop-color="#FF5A3C" stop-opacity="0.13"/>
<stop offset="1" stop-color="#FF5A3C"/>
</linearGradient>
<linearGradient id="paint1_linear_150_6083" x1="45" y1="0" x2="45" y2="78" gradientUnits="userSpaceOnUse">
<stop stop-color="#FF5A3C" stop-opacity="0.13"/>
<stop offset="1" stop-color="#FF5A3C"/>
</linearGradient>
<linearGradient id="paint2_linear_150_6083" x1="77" y1="0" x2="77" y2="78" gradientUnits="userSpaceOnUse">
<stop stop-color="#FF5A3C" stop-opacity="0.13"/>
<stop offset="1" stop-color="#FF5A3C"/>
</linearGradient>
</defs>
</svg>
