<svg width="12" height="10" viewBox="0 0 12 10" fill="none" xmlns="http://www.w3.org/2000/svg">
<path d="M11.1829 1.6521C10.765 1.8626 10.3472 1.93276 9.85965 2.00293C10.3472 1.72226 10.6954 1.30127 10.8347 0.739941C10.4168 1.0206 9.92929 1.16094 9.37215 1.30127C8.95429 0.880273 8.32751 0.599609 7.70072 0.599609C6.51679 0.599609 5.47215 1.6521 5.47215 2.91509C5.47215 3.12558 5.47215 3.26592 5.54179 3.40625C3.66144 3.33608 1.92037 2.42392 0.80608 1.02061C0.597151 1.37143 0.527509 1.72226 0.527509 2.21343C0.527509 2.98525 0.945366 3.68691 1.57215 4.10791C1.22394 4.10791 0.875723 3.96757 0.527509 3.82724C0.527509 4.9499 1.29358 5.86205 2.33822 6.07255C2.12929 6.14272 1.92037 6.14272 1.71144 6.14272C1.57215 6.14272 1.43287 6.14272 1.29358 6.07255C1.57215 6.98471 2.40787 7.68637 3.45251 7.68637C2.68644 8.31786 1.71144 8.66869 0.597151 8.66869C0.388223 8.66869 0.248937 8.66869 0.0400085 8.66869C1.08465 9.30019 2.26858 9.72118 3.52215 9.72118C7.70072 9.72118 9.99894 6.21288 9.99894 3.19575C9.99894 3.12558 9.99894 2.98525 9.99894 2.91509C10.4864 2.56426 10.9043 2.14326 11.1829 1.6521Z" fill="white"/>
</svg>
