<svg width="312" height="311" viewBox="0 0 312 311" fill="none" xmlns="http://www.w3.org/2000/svg">
<g filter="url(#filter0_d_150_6057)">
<rect x="38" y="32" width="212" height="211" rx="12" fill="#FCFCFC"/>
</g>
<circle opacity="0.1" cx="148.026" cy="147.026" r="49.0259" stroke="#2E2E30" stroke-width="6"/>
<g filter="url(#filter1_d_150_6057)">
<path d="M113.02 181.146C118.933 187.087 126.271 191.412 134.332 193.708C142.394 196.005 150.909 196.196 159.066 194.264C167.222 192.332 174.747 188.341 180.921 182.672C187.096 177.003 191.713 169.846 194.334 161.883C196.954 153.921 197.489 145.421 195.888 137.193C194.286 128.965 190.602 121.285 185.187 114.887" stroke="url(#paint0_linear_150_6057)" stroke-width="24"/>
</g>
<g filter="url(#filter2_d_150_6057)">
<path d="M196.791 146.558C196.791 140.12 195.523 133.745 193.059 127.797C190.595 121.849 186.984 116.444 182.431 111.892C177.879 107.339 172.474 103.728 166.526 101.264C160.578 98.8004 154.203 97.5323 147.765 97.5323" stroke="#FF5A3C" stroke-width="14"/>
</g>
<rect x="73" y="74" width="42.6525" height="20.1006" rx="2" fill="#FF5A3C"/>
<rect x="106.644" y="90.3625" width="4.76664" height="4.76664" transform="rotate(45 106.644 90.3625)" fill="#FF5A3C"/>
<path d="M89.0586 80.8613C88.9365 80.8613 88.8535 80.9248 88.8047 81.0566L86.9004 86.042L85.9287 83.7178L86.9736 81.1055C87.0322 80.9639 86.9736 80.8613 86.8125 80.8613H85.748C85.6211 80.8613 85.5381 80.9248 85.4941 81.0566L83.6191 85.9883L81.7686 81.0615C81.7246 80.9297 81.6367 80.8662 81.5049 80.8662H80.4404C80.2842 80.8662 80.2207 80.959 80.2842 81.1104L82.9551 87.8096C83.0088 87.9414 83.1016 88.0098 83.2285 88.0098H84.0244C84.1416 88.0098 84.249 87.9268 84.293 87.8047L85.2793 85.3389L86.2705 87.8096C86.3145 87.9316 86.4316 88.0098 86.5439 88.0098H87.335C87.4521 88.0098 87.5596 87.9268 87.6035 87.8047L90.2891 81.1055C90.3477 80.9541 90.2842 80.8613 90.1279 80.8613H89.0586ZM90.2939 84.4502C90.2939 85.1289 90.4551 85.749 90.7822 86.3154C91.1094 86.877 91.5586 87.3213 92.125 87.6484C92.6914 87.9756 93.3164 88.1367 93.9951 88.1367C94.6738 88.1367 95.2988 87.9756 95.8652 87.6484C96.4316 87.3213 96.876 86.877 97.2031 86.3154C97.5303 85.749 97.6963 85.1289 97.6963 84.4502C97.6963 83.7715 97.5303 83.1465 97.2031 82.5801C96.876 82.0088 96.4316 81.5645 95.8652 81.2373C95.2988 80.9102 94.6738 80.7441 93.9951 80.7441C93.3164 80.7441 92.6914 80.9102 92.125 81.2373C91.5586 81.5645 91.1094 82.0088 90.7822 82.5801C90.4551 83.1465 90.2939 83.7715 90.2939 84.4502ZM91.6904 84.4502C91.666 83.1807 92.7305 82.1162 93.9951 82.1406C95.2598 82.1162 96.3242 83.1807 96.2998 84.4502C96.2998 85.0898 96.0752 85.6367 95.6309 86.0811C95.1865 86.5254 94.6445 86.7451 93.9951 86.7451C93.3457 86.7451 92.7988 86.5254 92.3545 86.0811C91.9102 85.6367 91.6904 85.0898 91.6904 84.4502ZM106.48 80.8613C106.358 80.8613 106.275 80.9248 106.227 81.0566L104.322 86.042L103.351 83.7178L104.396 81.1055C104.454 80.9639 104.396 80.8613 104.234 80.8613H103.17C103.043 80.8613 102.96 80.9248 102.916 81.0566L101.041 85.9883L99.1904 81.0615C99.1465 80.9297 99.0586 80.8662 98.9268 80.8662H97.8623C97.7061 80.8662 97.6426 80.959 97.7061 81.1104L100.377 87.8096C100.431 87.9414 100.523 88.0098 100.65 88.0098H101.446C101.563 88.0098 101.671 87.9268 101.715 87.8047L102.701 85.3389L103.692 87.8096C103.736 87.9316 103.854 88.0098 103.966 88.0098H104.757C104.874 88.0098 104.981 87.9268 105.025 87.8047L107.711 81.1055C107.77 80.9541 107.706 80.8613 107.55 80.8613H106.48Z" fill="white"/>
<path d="M133.059 130.488C131.584 130.488 130.344 130.986 129.328 131.992C128.312 132.998 127.805 134.219 127.805 135.664C127.805 137.041 128.234 138.203 129.084 139.15C129.934 140.098 130.979 140.576 132.209 140.576C132.824 140.576 133.391 140.439 133.928 140.166C133.508 140.859 132.961 141.592 132.277 142.344C131.594 143.096 130.9 143.73 130.207 144.258C129.67 144.678 129.846 145.01 130.598 145.01H133.342C133.605 145.01 134.035 144.834 134.279 144.609C135.5 143.584 136.477 142.324 137.219 140.83C137.961 139.336 138.332 137.695 138.332 135.918C138.332 134.355 137.746 132.939 136.809 132.002C135.871 131.064 134.514 130.488 133.059 130.488ZM133.088 137.686C132.521 137.686 132.043 137.5 131.652 137.119C131.271 136.738 131.076 136.27 131.076 135.713C131.076 135.166 131.271 134.707 131.652 134.326C132.043 133.945 132.521 133.75 133.078 133.75C133.635 133.75 134.104 133.945 134.484 134.326C134.875 134.707 135.07 135.166 135.07 135.713C135.07 136.27 134.875 136.738 134.494 137.119C134.113 137.5 133.645 137.686 133.088 137.686ZM144.523 130.488C143.049 130.488 141.809 130.986 140.793 131.992C139.777 132.998 139.27 134.219 139.27 135.664C139.27 137.041 139.699 138.203 140.549 139.15C141.398 140.098 142.443 140.576 143.674 140.576C144.289 140.576 144.855 140.439 145.393 140.166C144.973 140.859 144.426 141.592 143.742 142.344C143.059 143.096 142.365 143.73 141.672 144.258C141.135 144.678 141.311 145.01 142.062 145.01H144.807C145.07 145.01 145.5 144.834 145.744 144.609C146.965 143.584 147.941 142.324 148.684 140.83C149.426 139.336 149.797 137.695 149.797 135.918C149.797 134.355 149.211 132.939 148.273 132.002C147.336 131.064 145.979 130.488 144.523 130.488ZM144.553 137.686C143.986 137.686 143.508 137.5 143.117 137.119C142.736 136.738 142.541 136.27 142.541 135.713C142.541 135.166 142.736 134.707 143.117 134.326C143.508 133.945 143.986 133.75 144.543 133.75C145.1 133.75 145.568 133.945 145.949 134.326C146.34 134.707 146.535 135.166 146.535 135.713C146.535 136.27 146.34 136.738 145.959 137.119C145.578 137.5 145.109 137.686 144.553 137.686ZM153.713 144.531C153.566 144.727 153.576 144.941 153.723 145.059L154.162 145.391C154.387 145.557 154.592 145.527 154.768 145.283L165.129 131.25C165.285 131.016 165.275 130.84 165.109 130.713L164.67 130.391C164.465 130.244 164.221 130.283 164.064 130.488L153.713 144.531ZM150.949 134.502C150.949 135.645 151.34 136.602 152.121 137.393C152.902 138.184 153.859 138.574 155.002 138.574C156.145 138.574 157.111 138.184 157.902 137.393C158.693 136.602 159.084 135.645 159.084 134.502C159.084 133.359 158.693 132.393 157.902 131.602C157.111 130.811 156.145 130.42 155.002 130.42C153.859 130.42 152.902 130.811 152.121 131.602C151.34 132.393 150.949 133.359 150.949 134.502ZM153.801 133.291C154.133 132.969 154.533 132.803 155.012 132.803C155.49 132.803 155.891 132.969 156.223 133.301C156.555 133.623 156.721 134.023 156.721 134.502C156.721 134.98 156.555 135.381 156.223 135.713C155.891 136.035 155.49 136.201 155.012 136.201C154.533 136.201 154.133 136.035 153.801 135.703C153.479 135.371 153.312 134.971 153.312 134.492C153.312 134.014 153.479 133.613 153.801 133.291ZM160.158 141.26C160.158 142.393 160.549 143.359 161.33 144.15C162.121 144.941 163.078 145.332 164.211 145.332C165.354 145.332 166.32 144.941 167.111 144.15C167.902 143.359 168.303 142.393 168.303 141.26C168.303 140.117 167.902 139.15 167.111 138.359C166.32 137.568 165.354 137.178 164.211 137.178C163.078 137.178 162.121 137.568 161.33 138.359C160.549 139.15 160.158 140.117 160.158 141.26ZM163.01 140.049C163.342 139.717 163.742 139.551 164.221 139.551C164.699 139.551 165.1 139.717 165.432 140.049C165.764 140.381 165.93 140.781 165.93 141.26C165.93 141.738 165.764 142.139 165.432 142.461C165.1 142.783 164.699 142.949 164.221 142.949C163.742 142.949 163.342 142.783 163.01 142.461C162.688 142.129 162.521 141.729 162.521 141.25C162.521 140.771 162.688 140.371 163.01 140.049ZM130.559 157.999C130.559 158.053 130.588 158.102 130.651 158.146C131.018 158.458 131.403 158.688 131.804 158.839C132.204 158.985 132.663 159.059 133.186 159.059C134.738 159.073 135.905 158.258 135.886 156.964C135.886 156.554 135.773 156.222 135.544 155.963C135.319 155.704 135.031 155.499 134.685 155.357C134.338 155.216 133.894 155.074 133.352 154.933C132.673 154.776 132.204 154.63 131.877 154.322C131.716 154.171 131.638 153.98 131.638 153.751C131.638 153.062 132.351 152.638 133.317 152.638C134.123 152.652 134.436 152.789 135.017 153.18C135.07 153.214 135.119 153.233 135.158 153.233C135.202 153.233 135.241 153.214 135.275 153.17L135.563 152.755C135.588 152.721 135.603 152.687 135.603 152.652C135.603 152.604 135.578 152.56 135.534 152.525C134.963 152.052 134.196 151.808 133.317 151.808C131.828 151.798 130.798 152.54 130.812 153.751C130.832 154.845 131.589 155.304 133.112 155.665C133.508 155.758 133.835 155.851 134.094 155.938C134.353 156.026 134.577 156.153 134.768 156.324C134.958 156.49 135.056 156.705 135.056 156.964C135.056 157.779 134.279 158.233 133.186 158.233C132.326 158.233 131.599 157.936 131.125 157.481C131.076 157.442 131.032 157.423 130.993 157.423C130.959 157.423 130.92 157.442 130.881 157.481L130.598 157.896C130.573 157.931 130.559 157.965 130.559 157.999ZM140.471 156.295C140.471 155.299 139.719 154.669 138.625 154.669C138.361 154.669 138.088 154.703 137.81 154.771C137.531 154.84 137.302 154.933 137.111 155.05C137.028 155.094 136.989 155.147 136.989 155.211C136.989 155.235 136.994 155.255 137.009 155.279L137.175 155.606C137.194 155.65 137.233 155.675 137.287 155.675C137.321 155.675 137.355 155.665 137.39 155.646C137.551 155.553 137.746 155.475 137.971 155.421C138.195 155.367 138.41 155.338 138.62 155.338C139.221 155.338 139.67 155.729 139.67 156.354V156.637H138.024C137.15 156.642 136.652 157.037 136.652 157.784C136.652 158.575 137.312 159.122 138.195 159.122C138.903 159.122 139.47 158.824 139.768 158.37L139.826 158.927C139.841 158.971 139.88 159.005 139.924 159.005H140.354C140.427 159.005 140.471 158.956 140.471 158.883V156.295ZM139.67 157.369C139.67 157.989 139.084 158.478 138.405 158.478C137.883 158.478 137.448 158.165 137.448 157.745C137.448 157.394 137.697 157.188 138.122 157.188H139.67V157.369ZM141.154 155.436C141.154 155.514 141.193 155.553 141.271 155.553H141.784V158.897C141.784 158.971 141.823 159.01 141.901 159.01H142.473C142.546 159.01 142.58 158.971 142.58 158.897V155.553H143.688C143.767 155.553 143.806 155.514 143.806 155.436V154.898C143.806 154.835 143.762 154.791 143.688 154.791H142.58V153.189C142.58 153.106 142.521 153.058 142.448 153.082L141.877 153.312C141.813 153.336 141.784 153.38 141.784 153.448V154.791H141.271C141.198 154.791 141.154 154.83 141.154 154.903V155.436ZM144.421 152.823C144.421 152.965 144.47 153.082 144.572 153.185C144.675 153.287 144.797 153.336 144.938 153.336C145.08 153.336 145.202 153.287 145.305 153.185C145.407 153.082 145.456 152.965 145.456 152.823C145.456 152.535 145.227 152.306 144.938 152.306C144.65 152.306 144.421 152.535 144.421 152.823ZM145.334 154.894C145.334 154.82 145.295 154.781 145.217 154.781H144.655C144.577 154.781 144.538 154.82 144.538 154.894V158.893C144.538 158.966 144.577 159.005 144.655 159.005H145.217C145.295 159.005 145.334 158.966 145.334 158.893V154.894ZM147.385 155.899C147.385 155.587 147.653 155.401 148.083 155.401C148.459 155.401 148.889 155.543 149.201 155.719C149.221 155.729 149.24 155.733 149.255 155.733C149.304 155.733 149.343 155.709 149.372 155.655L149.602 155.274C149.616 155.25 149.626 155.221 149.626 155.191C149.626 155.138 149.597 155.099 149.538 155.064C149.353 154.952 149.128 154.859 148.864 154.781C148.605 154.698 148.342 154.659 148.083 154.659C147.185 154.659 146.633 155.201 146.633 155.851C146.633 156.617 147.102 156.949 148.107 157.188C148.752 157.35 149.035 157.535 149.035 157.862C149.035 158.209 148.732 158.38 148.132 158.38C147.644 158.38 147.165 158.189 146.828 157.979C146.789 157.965 146.76 157.955 146.735 157.955C146.687 157.955 146.647 157.979 146.623 158.023L146.403 158.414C146.384 158.443 146.374 158.473 146.374 158.502C146.374 158.546 146.398 158.585 146.452 158.614C146.643 158.736 146.892 158.854 147.189 158.961C147.487 159.068 147.805 159.122 148.132 159.122C149.172 159.122 149.802 158.697 149.802 157.896C149.802 157.13 149.323 156.744 148.303 156.505C147.58 156.329 147.385 156.188 147.385 155.899ZM154.86 154.903C154.86 154.83 154.816 154.791 154.743 154.791H151.813V154.044C151.813 153.15 152.346 152.604 153.205 152.604C153.498 152.604 153.786 152.716 154.025 152.916C154.055 152.95 154.084 152.97 154.118 152.97C154.152 152.97 154.177 152.955 154.201 152.926L154.597 152.545C154.616 152.521 154.626 152.491 154.626 152.462C154.626 152.428 154.611 152.398 154.582 152.364C154.206 152.013 153.708 151.808 153.205 151.808C151.848 151.808 151.018 152.652 151.018 154.039V154.791H150.598C150.524 154.791 150.48 154.83 150.48 154.903V155.47C150.48 155.543 150.524 155.592 150.598 155.592H151.018V158.893C151.018 158.966 151.062 159.01 151.125 159.01H151.696C151.77 159.01 151.813 158.966 151.813 158.893V155.592H154.064V158.893C154.064 158.971 154.104 159.01 154.182 159.01H154.743C154.821 159.01 154.86 158.971 154.86 158.893V154.903ZM160.104 156.871C160.124 155.68 159.201 154.645 158.005 154.669C156.794 154.649 155.803 155.68 155.822 156.891C155.798 158.092 156.853 159.146 158.063 159.122C158.596 159.122 159.084 158.932 159.528 158.546C159.558 158.521 159.572 158.492 159.572 158.458C159.572 158.434 159.562 158.404 159.543 158.375C159.499 158.302 159.44 158.229 159.377 158.146L159.284 158.014C159.26 157.984 159.235 157.97 159.206 157.97C159.182 157.97 159.152 157.979 159.123 157.999C158.781 158.263 158.43 158.395 158.073 158.395C157.38 158.395 156.818 157.887 156.662 157.232H159.763C159.958 157.232 160.104 157.101 160.104 156.871ZM156.638 156.617C156.735 155.943 157.297 155.445 158 155.445C158.698 155.445 159.187 155.943 159.284 156.617H156.638ZM165.212 151.983C165.212 151.905 165.163 151.861 165.09 151.861H164.533C164.46 151.861 164.411 151.905 164.411 151.983L164.421 155.523C164.064 154.981 163.479 154.669 162.8 154.669C161.643 154.649 160.71 155.66 160.734 156.891C160.715 158.131 161.647 159.142 162.805 159.122C163.508 159.122 164.104 158.785 164.46 158.204L164.533 158.932C164.543 158.98 164.577 159.005 164.636 159.005H165.09C165.163 159.005 165.212 158.961 165.212 158.883V151.983ZM164.411 156.891C164.426 157.687 163.747 158.365 162.946 158.351C162.16 158.365 161.491 157.687 161.506 156.891C161.491 156.104 162.155 155.431 162.941 155.445C163.747 155.431 164.426 156.104 164.411 156.891Z" fill="#2E2E30"/>
<defs>
<filter id="filter0_d_150_6057" x="0" y="0" width="312" height="311" filterUnits="userSpaceOnUse" color-interpolation-filters="sRGB">
<feFlood flood-opacity="0" result="BackgroundImageFix"/>
<feColorMatrix in="SourceAlpha" type="matrix" values="0 0 0 0 0 0 0 0 0 0 0 0 0 0 0 0 0 0 127 0" result="hardAlpha"/>
<feOffset dx="12" dy="18"/>
<feGaussianBlur stdDeviation="25"/>
<feColorMatrix type="matrix" values="0 0 0 0 0 0 0 0 0 0 0 0 0 0 0 0 0 0 0.13 0"/>
<feBlend mode="normal" in2="BackgroundImageFix" result="effect1_dropShadow_150_6057"/>
<feBlend mode="normal" in="SourceGraphic" in2="effect1_dropShadow_150_6057" result="shape"/>
</filter>
<filter id="filter1_d_150_6057" x="48.7951" y="71.4148" width="215.715" height="211.89" filterUnits="userSpaceOnUse" color-interpolation-filters="sRGB">
<feFlood flood-opacity="0" result="BackgroundImageFix"/>
<feColorMatrix in="SourceAlpha" type="matrix" values="0 0 0 0 0 0 0 0 0 0 0 0 0 0 0 0 0 0 127 0" result="hardAlpha"/>
<feOffset dy="20"/>
<feGaussianBlur stdDeviation="27.86"/>
<feColorMatrix type="matrix" values="0 0 0 0 0.109804 0 0 0 0 0.156863 0 0 0 0 0.431373 0 0 0 0.3 0"/>
<feBlend mode="normal" in2="BackgroundImageFix" result="effect1_dropShadow_150_6057"/>
<feBlend mode="normal" in="SourceGraphic" in2="effect1_dropShadow_150_6057" result="shape"/>
</filter>
<filter id="filter2_d_150_6057" x="92.0447" y="82.5724" width="167.466" height="167.466" filterUnits="userSpaceOnUse" color-interpolation-filters="sRGB">
<feFlood flood-opacity="0" result="BackgroundImageFix"/>
<feColorMatrix in="SourceAlpha" type="matrix" values="0 0 0 0 0 0 0 0 0 0 0 0 0 0 0 0 0 0 127 0" result="hardAlpha"/>
<feOffset dy="47.76"/>
<feGaussianBlur stdDeviation="27.86"/>
<feColorMatrix type="matrix" values="0 0 0 0 0.203125 0 0 0 0 0.585 0 0 0 0 0.9375 0 0 0 0.25 0"/>
<feBlend mode="normal" in2="BackgroundImageFix" result="effect1_dropShadow_150_6057"/>
<feBlend mode="normal" in="SourceGraphic" in2="effect1_dropShadow_150_6057" result="shape"/>
</filter>
<linearGradient id="paint0_linear_150_6057" x1="232.825" y1="106.847" x2="96.0797" y2="71.5769" gradientUnits="userSpaceOnUse">
<stop stop-color="#1A3B4C"/>
<stop offset="1" stop-color="#122E3C"/>
</linearGradient>
</defs>
</svg>
